# This file uses centimeters as units for non-parametric coordinates.

mtllib saetta.mtl
g default
v -0.016243 -1.881718 -1.052275
v -0.011623 -1.875688 -1.047317
v -0.137852 -0.475046 0.298304
v 0.096138 -0.479263 0.300126
v -0.124054 -0.495552 -0.306658
v 0.109895 -0.501884 -0.307045
v -0.016288 -1.880883 -1.051600
v -0.011578 -1.874661 -1.046976
v -0.130011 -0.522746 -0.074606
v 0.103936 -0.525955 -0.069048
v -0.107703 0.944450 1.102439
v 0.126332 0.944450 1.102439
v -0.107703 0.902215 0.179277
v 0.126332 0.902215 0.179277
v -0.114681 -0.523640 -0.720372
v 0.119266 -0.526849 -0.714814
v -0.106907 0.788155 0.401741
v 0.127189 0.788420 0.413108
v -0.101300 2.293432 1.622656
v 0.132735 2.293167 1.623082
v -0.095285 2.270191 0.485882
v 0.138745 2.268733 0.485388
v -0.099783 0.804332 -0.331296
v 0.134337 0.801256 -0.320878
vt 0.375000 0.000000
vt 0.625000 0.000000
vt 0.375000 0.250000
vt 0.625000 0.250000
vt 0.375000 0.500000
vt 0.625000 0.500000
vt 0.375000 0.750000
vt 0.625000 0.750000
vt 0.375000 1.000000
vt 0.625000 1.000000
vt 0.875000 0.000000
vt 0.875000 0.250000
vt 0.125000 0.000000
vt 0.125000 0.250000
vt 0.375000 0.000000
vt 0.625000 0.000000
vt 0.625000 0.250000
vt 0.375000 0.250000
vt 0.625000 0.500000
vt 0.375000 0.500000
vt 0.625000 0.750000
vt 0.375000 0.750000
vt 0.625000 1.000000
vt 0.375000 1.000000
vt 0.875000 0.000000
vt 0.875000 0.250000
vt 0.125000 0.000000
vt 0.125000 0.250000
vt 0.375000 0.000000
vt 0.625000 0.000000
vt 0.625000 0.250000
vt 0.375000 0.250000
vt 0.625000 0.500000
vt 0.375000 0.500000
vt 0.625000 0.750000
vt 0.375000 0.750000
vt 0.625000 1.000000
vt 0.375000 1.000000
vt 0.875000 0.000000
vt 0.875000 0.250000
vt 0.125000 0.000000
vt 0.125000 0.250000
vn -0.015198 -0.693433 0.720361
vn -0.015198 -0.693433 0.720361
vn -0.015198 -0.693433 0.720361
vn -0.015198 -0.693433 0.720361
vn 0.022630 0.999130 -0.035034
vn 0.022630 0.999130 -0.035034
vn 0.022630 0.999130 -0.035034
vn 0.022630 0.999130 -0.035034
vn 0.015848 0.473915 -0.880428
vn 0.015848 0.473915 -0.880428
vn 0.015848 0.473915 -0.880428
vn 0.015848 0.473915 -0.880428
vn 0.263461 0.461746 -0.846982
vn 0.263461 0.461746 -0.846982
vn 0.263461 0.461746 -0.846982
vn 0.263461 0.461746 -0.846982
vn 0.994427 -0.102106 0.026250
vn 0.994427 -0.102106 0.026250
vn 0.994427 -0.102106 0.026250
vn 0.994427 -0.102106 0.026250
vn -0.997572 -0.066541 -0.020537
vn -0.997572 -0.066541 -0.020537
vn -0.997572 -0.066541 -0.020537
vn -0.997572 -0.066541 -0.020537
vn -0.013559 -0.624261 0.781098
vn -0.013559 -0.624261 0.781099
vn -0.013559 -0.624261 0.781099
vn -0.013559 -0.624261 0.781098
vn 0.000000 0.998955 -0.045702
vn 0.000000 0.998955 -0.045702
vn 0.000000 0.998955 -0.045702
vn 0.000000 0.998955 -0.045702
vn 0.013704 0.531907 -0.846692
vn 0.013704 0.531907 -0.846692
vn 0.013704 0.531907 -0.846692
vn 0.013704 0.531907 -0.846692
vn -0.013741 -0.999905 0.001059
vn -0.013741 -0.999905 0.001059
vn -0.013741 -0.999905 0.001059
vn -0.013741 -0.999905 0.001059
vn 0.999795 -0.017461 0.010249
vn 0.999795 -0.017461 0.010249
vn 0.999795 -0.017461 0.010249
vn 0.999795 -0.017461 0.010249
vn -0.999795 0.017478 -0.010250
vn -0.999795 0.017478 -0.010250
vn -0.999795 0.017478 -0.010250
vn -0.999795 0.017478 -0.010250
vn -0.019594 -0.628128 0.777863
vn -0.019594 -0.628128 0.777863
vn -0.019594 -0.628128 0.777863
vn -0.019594 -0.628128 0.777863
vn 0.003676 0.999774 -0.020937
vn 0.003676 0.999774 -0.020937
vn 0.003676 0.999774 -0.020937
vn 0.003676 0.999774 -0.020937
vn 0.023231 0.484047 -0.874734
vn 0.023231 0.484047 -0.874734
vn 0.023231 0.484047 -0.874734
vn 0.023231 0.484047 -0.874734
vn -0.005078 -0.999791 -0.019822
vn -0.005078 -0.999791 -0.019822
vn -0.005078 -0.999791 -0.019822
vn -0.005078 -0.999791 -0.019822
vn 0.999942 -0.008152 0.007080
vn 0.999942 -0.008152 0.007080
vn 0.999942 -0.008152 0.007080
vn 0.999942 -0.008152 0.007080
vn -0.999941 0.008242 -0.007057
vn -0.999941 0.008242 -0.007057
vn -0.999941 0.008242 -0.007057
vn -0.999941 0.008242 -0.007057
s off
g saetta:pCube5
usemtl initialShadingGroup
f 1/1/1 2/2/2 4/4/3 3/3/4
f 3/3/5 4/4/6 6/6/7 5/5/8
f 5/5/9 6/6/10 8/8/11 7/7/12
f 7/7/13 8/8/14 2/10/15 1/9/16
f 2/2/17 8/11/18 6/12/19 4/4/20
f 7/13/21 1/1/22 3/3/23 5/14/24
f 9/15/25 10/16/26 12/17/27 11/18/28
f 11/18/29 12/17/30 14/19/31 13/20/32
f 13/20/33 14/19/34 16/21/35 15/22/36
f 15/22/37 16/21/38 10/23/39 9/24/40
f 10/16/41 16/25/42 14/26/43 12/17/44
f 15/27/45 9/15/46 11/18/47 13/28/48
f 17/29/49 18/30/50 20/31/51 19/32/52
f 19/32/53 20/31/54 22/33/55 21/34/56
f 21/34/57 22/33/58 24/35/59 23/36/60
f 23/36/61 24/35/62 18/37/63 17/38/64
f 18/30/65 24/39/66 22/40/67 20/31/68
f 23/41/69 17/29/70 19/32/71 21/42/72
