# This file uses centimeters as units for non-parametric coordinates.

mtllib sopraccigliomadara.mtl
g default
v 0.047345 1.534527 0.194353
v 0.075621 1.544569 0.186503
v 0.116706 1.551471 0.164007
v 0.076289 1.542045 0.184785
v 0.059844 1.539739 0.191438
v 0.114641 1.559449 0.165429
v 0.094863 1.548662 0.177338
v 0.075877 1.548486 0.187470
v 0.134313 1.550793 0.148823
v 0.048606 1.532231 0.193490
v 0.035354 1.525095 0.195959
v 0.113709 1.545734 0.163386
v 0.047299 1.537828 0.194592
v 0.038875 1.525295 0.195127
v 0.035911 1.528935 0.195839
v 0.060842 1.537185 0.190188
v 0.128577 1.549750 0.150931
v 0.093994 1.545067 0.176203
v 0.059813 1.544675 0.192144
v 0.094712 1.553918 0.178168
v 0.132762 1.556153 0.152737
v 0.046636 1.534897 0.191462
v 0.074399 1.545394 0.183891
v 0.114983 1.552388 0.161729
v 0.074997 1.543179 0.182326
v 0.058873 1.540391 0.188676
v 0.112955 1.559731 0.162964
v 0.093359 1.549390 0.174847
v 0.074656 1.549024 0.184783
v 0.132512 1.551665 0.146587
v 0.047709 1.532849 0.190694
v 0.034761 1.525359 0.193030
v 0.112095 1.547077 0.161244
v 0.046634 1.538075 0.191677
v 0.038079 1.525786 0.192276
v 0.035486 1.529014 0.192870
v 0.059747 1.538116 0.187555
v 0.126904 1.551522 0.149180
v 0.092535 1.546194 0.173836
v 0.058908 1.545137 0.189321
v 0.093197 1.554246 0.175599
v 0.130970 1.556612 0.150375
v -0.047345 1.534527 0.194353
v -0.075621 1.544569 0.186503
v -0.116706 1.551471 0.164007
v -0.076289 1.542045 0.184785
v -0.059844 1.539739 0.191438
v -0.114641 1.559449 0.165429
v -0.094863 1.548662 0.177338
v -0.075877 1.548486 0.187470
v -0.134313 1.550793 0.148823
v -0.048606 1.532231 0.193490
v -0.035354 1.525095 0.195959
v -0.113709 1.545734 0.163386
v -0.047299 1.537828 0.194592
v -0.038875 1.525295 0.195127
v -0.035911 1.528935 0.195839
v -0.060842 1.537185 0.190188
v -0.128577 1.549750 0.150931
v -0.093994 1.545067 0.176203
v -0.059813 1.544675 0.192144
v -0.094712 1.553918 0.178168
v -0.132762 1.556153 0.152737
v -0.046636 1.534897 0.191462
v -0.074399 1.545394 0.183891
v -0.114983 1.552388 0.161729
v -0.074997 1.543179 0.182326
v -0.058873 1.540391 0.188676
v -0.112955 1.559731 0.162964
v -0.093359 1.549390 0.174847
v -0.074656 1.549024 0.184783
v -0.132512 1.551665 0.146587
v -0.047709 1.532849 0.190694
v -0.034761 1.525359 0.193030
v -0.112095 1.547077 0.161244
v -0.046634 1.538075 0.191677
v -0.038079 1.525786 0.192276
v -0.035486 1.529014 0.192870
v -0.059747 1.538116 0.187555
v -0.126904 1.551522 0.149180
v -0.092535 1.546194 0.173836
v -0.058908 1.545137 0.189321
v -0.093197 1.554246 0.175599
v -0.130970 1.556612 0.150375
vt 0.608659 0.217925
vt 0.626977 0.221801
vt 0.627900 0.228481
vt 0.609307 0.222356
vt 0.592012 0.213090
vt 0.590381 0.208093
vt 0.595251 0.207505
vt 0.610020 0.214452
vt 0.628099 0.217885
vt 0.650100 0.224001
vt 0.679328 0.222815
vt 0.680340 0.229926
vt 0.651053 0.229377
vt 0.651054 0.219895
vt 0.677835 0.217809
vt 0.713716 0.217800
vt 0.708768 0.210522
vt 0.735412 0.207506
vt 0.743762 0.208390
vt 0.741007 0.217201
vt 0.713158 0.229109
vt 0.608659 0.217925
vt 0.609307 0.222356
vt 0.627900 0.228481
vt 0.626977 0.221801
vt 0.590381 0.208093
vt 0.592012 0.213090
vt 0.610020 0.214452
vt 0.595251 0.207505
vt 0.628099 0.217885
vt 0.650100 0.224001
vt 0.651053 0.229377
vt 0.680340 0.229926
vt 0.679328 0.222815
vt 0.651054 0.219895
vt 0.677835 0.217809
vt 0.713716 0.217800
vt 0.708768 0.210522
vt 0.743762 0.208390
vt 0.735412 0.207506
vt 0.713158 0.229109
vt 0.741007 0.217201
vt 0.608659 0.217925
vt 0.609307 0.222356
vt 0.627900 0.228481
vt 0.626977 0.221801
vt 0.590381 0.208093
vt 0.592012 0.213090
vt 0.610020 0.214452
vt 0.595251 0.207505
vt 0.628099 0.217885
vt 0.650100 0.224001
vt 0.651053 0.229377
vt 0.680340 0.229926
vt 0.679328 0.222815
vt 0.651054 0.219895
vt 0.677835 0.217809
vt 0.713716 0.217800
vt 0.708768 0.210522
vt 0.743762 0.208390
vt 0.735412 0.207506
vt 0.713158 0.229109
vt 0.741007 0.217201
vt 0.608659 0.217925
vt 0.626977 0.221801
vt 0.627900 0.228481
vt 0.609307 0.222356
vt 0.592012 0.213090
vt 0.590381 0.208093
vt 0.595251 0.207505
vt 0.610020 0.214452
vt 0.628099 0.217885
vt 0.650100 0.224001
vt 0.679328 0.222815
vt 0.680340 0.229926
vt 0.651053 0.229377
vt 0.651054 0.219895
vt 0.677835 0.217809
vt 0.713716 0.217800
vt 0.708768 0.210522
vt 0.735412 0.207506
vt 0.743762 0.208390
vt 0.741007 0.217201
vt 0.713158 0.229109
vn 0.257817 -0.107747 0.960167
vn 0.257817 -0.107747 0.960167
vn 0.257817 -0.107747 0.960167
vn 0.257817 -0.107747 0.960167
vn 0.236208 -0.123404 0.963834
vn -0.224412 0.538728 0.812042
vn -0.559414 0.372010 0.740719
vn -0.482974 -0.619267 0.619067
vn 0.236208 -0.123404 0.963834
vn -0.482974 -0.619267 0.619067
vn 0.400794 -0.803488 0.440194
vn 0.499007 -0.730510 0.466206
vn 0.236208 -0.123404 0.963834
vn 0.499007 -0.730510 0.466206
vn 0.408116 -0.838732 0.360514
vn 0.323617 -0.217511 0.920848
vn 0.407292 -0.275095 0.870883
vn 0.501200 -0.242700 0.830600
vn 0.256502 0.593705 0.762706
vn 0.187213 0.537137 0.822457
vn 0.407292 -0.275095 0.870883
vn 0.187213 0.537137 0.822457
vn -0.017800 0.574210 0.818514
vn 0.323617 -0.217511 0.920848
vn 0.407292 -0.275095 0.870883
vn 0.323617 -0.217511 0.920848
vn 0.408116 -0.838732 0.360514
vn 0.346003 -0.884907 0.311803
vn 0.407292 -0.275095 0.870883
vn 0.346003 -0.884907 0.311803
vn 0.277496 -0.906187 0.319095
vn 0.501200 -0.242700 0.830600
vn 0.574448 -0.305825 0.759263
vn 0.501200 -0.242700 0.830600
vn 0.277496 -0.906187 0.319095
vn 0.251009 -0.946135 0.204508
vn 0.574448 -0.305825 0.759263
vn 0.251009 -0.946135 0.204508
vn 0.225909 -0.974039 -0.014601
vn 0.930215 -0.330205 -0.160203
vn 0.574448 -0.305825 0.759263
vn 0.930215 -0.330205 -0.160203
vn 0.762306 0.542604 0.352803
vn 0.391209 0.672815 0.627914
vn 0.574448 -0.305825 0.759263
vn 0.391209 0.672815 0.627914
vn 0.256502 0.593705 0.762706
vn 0.501200 -0.242700 0.830600
vn -0.235499 0.123499 -0.963996
vn -0.536709 0.661411 -0.523908
vn -0.427027 0.781349 -0.455129
vn -0.323795 0.219197 -0.920386
vn -0.235499 0.123499 -0.963996
vn -0.728006 -0.492804 -0.476604
vn -0.747648 0.416027 -0.517633
vn -0.536709 0.661411 -0.523908
vn -0.235499 0.123499 -0.963996
vn 0.054401 -0.423605 -0.904212
vn 0.052499 -0.595294 -0.801791
vn -0.728006 -0.492804 -0.476604
vn -0.235499 0.123499 -0.963996
vn -0.323795 0.219197 -0.920386
vn -0.116506 -0.402120 -0.908144
vn 0.054401 -0.423605 -0.904212
vn -0.407414 0.277910 -0.869931
vn -0.389906 0.812112 -0.434106
vn -0.458215 0.774326 -0.436415
vn -0.501120 0.242410 -0.830733
vn -0.407414 0.277910 -0.869931
vn -0.323795 0.219197 -0.920386
vn -0.427027 0.781349 -0.455129
vn -0.389906 0.812112 -0.434106
vn -0.407414 0.277910 -0.869931
vn -0.281614 -0.352218 -0.892545
vn -0.116506 -0.402120 -0.908144
vn -0.323795 0.219197 -0.920386
vn -0.407414 0.277910 -0.869931
vn -0.501120 0.242410 -0.830733
vn -0.429188 -0.361590 -0.827677
vn -0.281614 -0.352218 -0.892545
vn -0.573325 0.316014 -0.755933
vn -0.496128 -0.343420 -0.797446
vn -0.429188 -0.361590 -0.827677
vn -0.501120 0.242410 -0.830733
vn -0.573325 0.316014 -0.755933
vn 0.077700 -0.182699 -0.980094
vn -0.539021 -0.174907 -0.823932
vn -0.496128 -0.343420 -0.797446
vn -0.573325 0.316014 -0.755933
vn -0.360432 0.805873 -0.469742
vn 0.066300 0.754102 -0.653402
vn 0.077700 -0.182699 -0.980094
vn -0.573325 0.316014 -0.755933
vn -0.501120 0.242410 -0.830733
vn -0.458215 0.774326 -0.436415
vn -0.360432 0.805873 -0.469742
vn 0.346003 -0.884907 0.311803
vn 0.408116 -0.838732 0.360514
vn -0.116506 -0.402120 -0.908144
vn -0.281614 -0.352218 -0.892545
vn 0.277496 -0.906187 0.319095
vn 0.346003 -0.884907 0.311803
vn -0.281614 -0.352218 -0.892545
vn -0.429188 -0.361590 -0.827677
vn 0.256502 0.593705 0.762706
vn 0.391209 0.672815 0.627914
vn -0.360432 0.805873 -0.469742
vn -0.458215 0.774326 -0.436415
vn 0.391209 0.672815 0.627914
vn 0.762306 0.542604 0.352803
vn 0.066300 0.754102 -0.653402
vn -0.360432 0.805873 -0.469742
vn -0.017800 0.574210 0.818514
vn 0.187213 0.537137 0.822457
vn -0.389906 0.812112 -0.434106
vn -0.427027 0.781349 -0.455129
vn 0.187213 0.537137 0.822457
vn 0.256502 0.593705 0.762706
vn -0.458215 0.774326 -0.436415
vn -0.389906 0.812112 -0.434106
vn 0.930215 -0.330205 -0.160203
vn 0.225909 -0.974039 -0.014601
vn -0.539021 -0.174907 -0.823932
vn 0.077700 -0.182699 -0.980094
vn 0.762306 0.542604 0.352803
vn 0.930215 -0.330205 -0.160203
vn 0.077700 -0.182699 -0.980094
vn 0.066300 0.754102 -0.653402
vn 0.499007 -0.730510 0.466206
vn 0.400794 -0.803488 0.440194
vn 0.052499 -0.595294 -0.801791
vn 0.054401 -0.423605 -0.904212
vn 0.408116 -0.838732 0.360514
vn 0.499007 -0.730510 0.466206
vn 0.054401 -0.423605 -0.904212
vn -0.116506 -0.402120 -0.908144
vn 0.400794 -0.803488 0.440194
vn -0.482974 -0.619267 0.619067
vn -0.728006 -0.492804 -0.476604
vn 0.052499 -0.595294 -0.801791
vn -0.482974 -0.619267 0.619067
vn -0.559414 0.372010 0.740719
vn -0.747648 0.416027 -0.517633
vn -0.728006 -0.492804 -0.476604
vn 0.225909 -0.974039 -0.014601
vn 0.251009 -0.946135 0.204508
vn -0.496128 -0.343420 -0.797446
vn -0.539021 -0.174907 -0.823932
vn 0.251009 -0.946135 0.204508
vn 0.277496 -0.906187 0.319095
vn -0.429188 -0.361590 -0.827677
vn -0.496128 -0.343420 -0.797446
vn -0.559414 0.372010 0.740719
vn -0.224412 0.538728 0.812042
vn -0.536709 0.661411 -0.523908
vn -0.747648 0.416027 -0.517633
vn -0.224412 0.538728 0.812042
vn -0.017800 0.574210 0.818514
vn -0.427027 0.781349 -0.455129
vn -0.536709 0.661411 -0.523908
vn -0.236208 -0.123404 0.963834
vn 0.224412 0.538728 0.812042
vn 0.017800 0.574210 0.818514
vn -0.323617 -0.217511 0.920848
vn -0.236208 -0.123404 0.963834
vn 0.483004 -0.619305 0.619005
vn 0.559414 0.372010 0.740719
vn 0.224412 0.538728 0.812042
vn -0.236208 -0.123404 0.963834
vn -0.499007 -0.730510 0.466206
vn -0.400794 -0.803488 0.440194
vn 0.483004 -0.619305 0.619005
vn -0.236208 -0.123404 0.963834
vn -0.323617 -0.217511 0.920848
vn -0.408116 -0.838732 0.360514
vn -0.499007 -0.730510 0.466206
vn -0.407292 -0.275095 0.870883
vn -0.187203 0.537208 0.822413
vn -0.256596 0.593690 0.762687
vn -0.501241 -0.242720 0.830568
vn -0.407292 -0.275095 0.870883
vn -0.323617 -0.217511 0.920848
vn 0.017800 0.574210 0.818514
vn -0.187203 0.537208 0.822413
vn -0.407292 -0.275095 0.870883
vn -0.346003 -0.884907 0.311803
vn -0.408116 -0.838732 0.360514
vn -0.323617 -0.217511 0.920848
vn -0.407292 -0.275095 0.870883
vn -0.501241 -0.242720 0.830568
vn -0.277496 -0.906187 0.319095
vn -0.346003 -0.884907 0.311803
vn -0.574448 -0.305825 0.759263
vn -0.251009 -0.946135 0.204508
vn -0.277496 -0.906187 0.319095
vn -0.501241 -0.242720 0.830568
vn -0.574448 -0.305825 0.759263
vn -0.930215 -0.330205 -0.160203
vn -0.225909 -0.974039 -0.014601
vn -0.251009 -0.946135 0.204508
vn -0.574448 -0.305825 0.759263
vn -0.391209 0.672815 0.627914
vn -0.762279 0.542585 0.352890
vn -0.930215 -0.330205 -0.160203
vn -0.574448 -0.305825 0.759263
vn -0.501241 -0.242720 0.830568
vn -0.256596 0.593690 0.762687
vn -0.391209 0.672815 0.627914
vn 0.235499 0.123499 -0.963996
vn 0.323795 0.219197 -0.920386
vn 0.427027 0.781349 -0.455129
vn 0.536709 0.661411 -0.523908
vn 0.235499 0.123499 -0.963996
vn 0.536709 0.661411 -0.523908
vn 0.747648 0.416027 -0.517633
vn 0.727959 -0.492840 -0.476639
vn 0.235499 0.123499 -0.963996
vn 0.727959 -0.492840 -0.476639
vn -0.052499 -0.595294 -0.801791
vn -0.054401 -0.423605 -0.904212
vn 0.235499 0.123499 -0.963996
vn -0.054401 -0.423605 -0.904212
vn 0.116506 -0.402120 -0.908144
vn 0.323795 0.219197 -0.920386
vn 0.407414 0.277910 -0.869931
vn 0.501120 0.242410 -0.830733
vn 0.458215 0.774326 -0.436415
vn 0.389906 0.812112 -0.434106
vn 0.407414 0.277910 -0.869931
vn 0.389906 0.812112 -0.434106
vn 0.427027 0.781349 -0.455129
vn 0.323795 0.219197 -0.920386
vn 0.407414 0.277910 -0.869931
vn 0.323795 0.219197 -0.920386
vn 0.116506 -0.402120 -0.908144
vn 0.281614 -0.352218 -0.892545
vn 0.407414 0.277910 -0.869931
vn 0.281614 -0.352218 -0.892545
vn 0.429188 -0.361590 -0.827677
vn 0.501120 0.242410 -0.830733
vn 0.573325 0.316014 -0.755933
vn 0.501120 0.242410 -0.830733
vn 0.429188 -0.361590 -0.827677
vn 0.496128 -0.343420 -0.797446
vn 0.573325 0.316014 -0.755933
vn 0.496128 -0.343420 -0.797446
vn 0.539021 -0.174907 -0.823932
vn -0.077700 -0.182699 -0.980094
vn 0.573325 0.316014 -0.755933
vn -0.077700 -0.182699 -0.980094
vn -0.066305 0.754152 -0.653345
vn 0.360432 0.805873 -0.469742
vn 0.573325 0.316014 -0.755933
vn 0.360432 0.805873 -0.469742
vn 0.458215 0.774326 -0.436415
vn 0.501120 0.242410 -0.830733
vn -0.346003 -0.884907 0.311803
vn 0.281614 -0.352218 -0.892545
vn 0.116506 -0.402120 -0.908144
vn -0.408116 -0.838732 0.360514
vn -0.277496 -0.906187 0.319095
vn 0.429188 -0.361590 -0.827677
vn 0.281614 -0.352218 -0.892545
vn -0.346003 -0.884907 0.311803
vn -0.256596 0.593690 0.762687
vn 0.458215 0.774326 -0.436415
vn 0.360432 0.805873 -0.469742
vn -0.391209 0.672815 0.627914
vn -0.391209 0.672815 0.627914
vn 0.360432 0.805873 -0.469742
vn -0.066305 0.754152 -0.653345
vn -0.762279 0.542585 0.352890
vn 0.017800 0.574210 0.818514
vn 0.427027 0.781349 -0.455129
vn 0.389906 0.812112 -0.434106
vn -0.187203 0.537208 0.822413
vn -0.187203 0.537208 0.822413
vn 0.389906 0.812112 -0.434106
vn 0.458215 0.774326 -0.436415
vn -0.256596 0.593690 0.762687
vn -0.930215 -0.330205 -0.160203
vn -0.077700 -0.182699 -0.980094
vn 0.539021 -0.174907 -0.823932
vn -0.225909 -0.974039 -0.014601
vn -0.762279 0.542585 0.352890
vn -0.066305 0.754152 -0.653345
vn -0.077700 -0.182699 -0.980094
vn -0.930215 -0.330205 -0.160203
vn -0.499007 -0.730510 0.466206
vn -0.054401 -0.423605 -0.904212
vn -0.052499 -0.595294 -0.801791
vn -0.400794 -0.803488 0.440194
vn -0.408116 -0.838732 0.360514
vn 0.116506 -0.402120 -0.908144
vn -0.054401 -0.423605 -0.904212
vn -0.499007 -0.730510 0.466206
vn -0.400794 -0.803488 0.440194
vn -0.052499 -0.595294 -0.801791
vn 0.727959 -0.492840 -0.476639
vn 0.483004 -0.619305 0.619005
vn 0.483004 -0.619305 0.619005
vn 0.727959 -0.492840 -0.476639
vn 0.747648 0.416027 -0.517633
vn 0.559414 0.372010 0.740719
vn -0.225909 -0.974039 -0.014601
vn 0.539021 -0.174907 -0.823932
vn 0.496128 -0.343420 -0.797446
vn -0.251009 -0.946135 0.204508
vn -0.251009 -0.946135 0.204508
vn 0.496128 -0.343420 -0.797446
vn 0.429188 -0.361590 -0.827677
vn -0.277496 -0.906187 0.319095
vn 0.559414 0.372010 0.740719
vn 0.747648 0.416027 -0.517633
vn 0.536709 0.661411 -0.523908
vn 0.224412 0.538728 0.812042
vn 0.224412 0.538728 0.812042
vn 0.536709 0.661411 -0.523908
vn 0.427027 0.781349 -0.455129
vn 0.017800 0.574210 0.818514
s off
g Madara_Uchiha:L2_Madara_Eye_brows_Plane_012_Blender_Render_Madara_Material
usemtl Madara_Uchiha:Blender_Render_Madara_Material
f 1/1/1 5/2/2 19/3/3 13/4/4
f 1/1/5 13/4/6 15/5/7 11/6/8
f 1/1/9 11/6/10 14/7/11 10/8/12
f 1/1/13 10/8/14 16/9/15 5/2/16
f 2/10/17 7/11/18 20/12/19 8/13/20
f 2/10/21 8/13/22 19/3/23 5/2/24
f 2/10/25 5/2/26 16/9/27 4/14/28
f 2/10/29 4/14/30 18/15/31 7/11/32
f 3/16/33 7/11/34 18/15/35 12/17/36
f 3/16/37 12/17/38 17/18/39 9/19/40
f 3/16/41 9/19/42 21/20/43 6/21/44
f 3/16/45 6/21/46 20/12/47 7/11/48
f 22/22/49 34/23/50 40/24/51 26/25/52
f 22/22/53 32/26/54 36/27/55 34/23/56
f 22/22/57 31/28/58 35/29/59 32/26/60
f 22/22/61 26/25/62 37/30/63 31/28/64
f 23/31/65 29/32/66 41/33/67 28/34/68
f 23/31/69 26/25/70 40/24/71 29/32/72
f 23/31/73 25/35/74 37/30/75 26/25/76
f 23/31/77 28/34/78 39/36/79 25/35/80
f 24/37/81 33/38/82 39/36/83 28/34/84
f 24/37/85 30/39/86 38/40/87 33/38/88
f 24/37/89 27/41/90 42/42/91 30/39/92
f 24/37/93 28/34/94 41/33/95 27/41/96
f 4/14/97 16/9/98 37/30/99 25/35/100
f 18/15/101 4/14/102 25/35/103 39/36/104
f 20/12/105 6/21/106 27/41/107 41/33/108
f 6/21/109 21/20/110 42/42/111 27/41/112
f 19/3/113 8/13/114 29/32/115 40/24/116
f 8/13/117 20/12/118 41/33/119 29/32/120
f 9/19/121 17/18/122 38/40/123 30/39/124
f 21/20/125 9/19/126 30/39/127 42/42/128
f 10/8/129 14/7/130 35/29/131 31/28/132
f 16/9/133 10/8/134 31/28/135 37/30/136
f 14/7/137 11/6/138 32/26/139 35/29/140
f 11/6/141 15/5/142 36/27/143 32/26/144
f 17/18/145 12/17/146 33/38/147 38/40/148
f 12/17/149 18/15/150 39/36/151 33/38/152
f 15/5/153 13/4/154 34/23/155 36/27/156
f 13/4/157 19/3/158 40/24/159 34/23/160
f 43/43/161 55/44/162 61/45/163 47/46/164
f 43/43/165 53/47/166 57/48/167 55/44/168
f 43/43/169 52/49/170 56/50/171 53/47/172
f 43/43/173 47/46/174 58/51/175 52/49/176
f 44/52/177 50/53/178 62/54/179 49/55/180
f 44/52/181 47/46/182 61/45/183 50/53/184
f 44/52/185 46/56/186 58/51/187 47/46/188
f 44/52/189 49/55/190 60/57/191 46/56/192
f 45/58/193 54/59/194 60/57/195 49/55/196
f 45/58/197 51/60/198 59/61/199 54/59/200
f 45/58/201 48/62/202 63/63/203 51/60/204
f 45/58/205 49/55/206 62/54/207 48/62/208
f 64/64/209 68/65/210 82/66/211 76/67/212
f 64/64/213 76/67/214 78/68/215 74/69/216
f 64/64/217 74/69/218 77/70/219 73/71/220
f 64/64/221 73/71/222 79/72/223 68/65/224
f 65/73/225 70/74/226 83/75/227 71/76/228
f 65/73/229 71/76/230 82/66/231 68/65/232
f 65/73/233 68/65/234 79/72/235 67/77/236
f 65/73/237 67/77/238 81/78/239 70/74/240
f 66/79/241 70/74/242 81/78/243 75/80/244
f 66/79/245 75/80/246 80/81/247 72/82/248
f 66/79/249 72/82/250 84/83/251 69/84/252
f 66/79/253 69/84/254 83/75/255 70/74/256
f 46/56/257 67/77/258 79/72/259 58/51/260
f 60/57/261 81/78/262 67/77/263 46/56/264
f 62/54/265 83/75/266 69/84/267 48/62/268
f 48/62/269 69/84/270 84/83/271 63/63/272
f 61/45/273 82/66/274 71/76/275 50/53/276
f 50/53/277 71/76/278 83/75/279 62/54/280
f 51/60/281 72/82/282 80/81/283 59/61/284
f 63/63/285 84/83/286 72/82/287 51/60/288
f 52/49/289 73/71/290 77/70/291 56/50/292
f 58/51/293 79/72/294 73/71/295 52/49/296
f 56/50/297 77/70/298 74/69/299 53/47/300
f 53/47/301 74/69/302 78/68/303 57/48/304
f 59/61/305 80/81/306 75/80/307 54/59/308
f 54/59/309 75/80/310 81/78/311 60/57/312
f 57/48/313 78/68/314 76/67/315 55/44/316
f 55/44/317 76/67/318 82/66/319 61/45/320
